# xmcd
#
# Track frame offsets:
#	150
#	13677
#	28453
#	43359
#	56687
#	71161
#	85977
#	101090
#	116717
#	131247
#
# Disc length: 1916 seconds
#
# Revision: 0
# Processed by: cddbd v1.5.1PL0 Copyright (c) Steve Scherf et al.
# Submitted via: EasyCDDAExtractor 5.0.5.1
#
DISCID=9b077a0a
DTITLE=Various Artist - Legendary Blues
DYEAR=1900
DGENRE=Blues
TTITLE0=Ada Brown and Fats Waller - That Ain't Right
TTITLE1=Clara Smith - Shipwrecked Blues
TTITLE2=Memphis Minnie - If You See My Rooster
TTITLE3=Alberta Hunter - Texas Moaner
TTITLE4=Bessie Smith - St. Louis Blues
TTITLE5=Hattie Hart - Won't You Be Kind to Me
TTITLE6=Ethel Waters - Shake That Thing
TTITLE7=Lil Johnson - Take it Easy Greasy
TTITLE8=Ma Rainey - See See Rider Blues
TTITLE9=Ester Bigeon - West Indies Blues
EXTD=
EXTT0=
EXTT1=
EXTT2=
EXTT3=
EXTT4=
EXTT5=
EXTT6=
EXTT7=
EXTT8=
EXTT9=
PLAYORDER=
